<svg id="Layer_1" data-name="Layer 1" xmlns="http://www.w3.org/2000/svg" viewBox="0 0 742.04 742.04"><defs><style>.cls-1{fill:#005ca9;}</style></defs><title>swipeme-blue</title><path class="cls-1" d="M363,346.63l-20.33-2.46-.17,60.08,20.34,1q7.72.37,12-6.48t4.35-22q0-15.21-4.23-22.17A15.71,15.71,0,0,0,363,346.63Z" transform="translate(-28.98 -28.98)"/><path class="cls-1" d="M32.66,452.27l10.49-.08q1,19.07,4,28.4,5.55,16.89,19.18,16.19,8.16-.4,13.26-5,9.69-8.79,9.77-31.41,0-13.22-4.66-20.49t-15-12.78l-11.67-6.7q-17.2-10.15-23.61-22a67.41,67.41,0,0,1-5.19-12.89C29.1,390.28,29,395.13,29,400A374.08,374.08,0,0,0,32.66,452.27Z" transform="translate(-28.98 -28.98)"/><path class="cls-1" d="M400,29c-153.43,0-285.11,93.14-341.58,226a29.91,29.91,0,0,1,7.73.36c11.51,2,21.31,11.14,29.38,27.32,8.08,16,12.26,37.82,12.56,65.76l-21.68-2Q85.89,322.2,77.82,311q-5.38-7.46-13.42-8.5-8.94-1.15-14.3,7.19t-5.42,24.66q-.05,14.92,5.18,22.69,3.36,5.14,14.3,12.43l18.91,12.39a51,51,0,0,1,18.61,20.23c6.39,12.6,9.55,30.49,9.47,53.8-.08,23.9-4,44-11.66,60.34-7.69,16.6-18.5,25.63-32.44,26.9a31.47,31.47,0,0,1-9.66-.55C113.28,676.72,245.62,771,400,771c204.91,0,371-166.11,371-371S604.91,29,400,29ZM227.43,522.52l-21.63,1.83-12.58-140-3.65-47.06-4,46.6-13.53,143.3-21,1.78L121.36,272.35l23.94,3.94,13.76,145.35,3,39.74,3.25-38.8L178,281.65l23.8,3.91L214.14,422.8l3.17,37.57,3.45-36,14.83-133.27,23,3.77Zm67.65-5.73-22.44,1.9.69-221.36L295.73,301ZM392,425.61c-6.35,9.3-15.39,14-27.13,13.92l-22.49-.11-.21,73.37-22.44,1.9.62-209.65,46.34,7.62c10.68,1.76,19.19,8.14,25.51,19,6.33,10.73,9.46,26.26,9.41,46.73C401.53,400.78,398.33,416.47,392,425.61Zm113,73.39L423,505.94,423.5,322l79.15,13-.06,29.08-57.13-6.87-.09,37.89,52.46,3.53-.06,28.72-52.47-1.26L445.18,472,505,469.59Zm124.8-10.58-21,1.78.13-93.15q0-4,.09-11.25t.09-11.16L588.36,491.92l-22,1.86-20.1-126.93q0,4.37.05,12.44t0,12.54l-.19,103.67-21,1.78.31-158.51,32.82,5.39,19.46,117.58L597.45,350.6l32.45,5.33Zm24.56-2.08L654.43,360l79.15,13v18.88L676.45,385l0,25.67,52.46,3.53v18.72l-52.47-1.26,0,31.08,59.82-2.39v19.05Z" transform="translate(-28.98 -28.98)"/></svg>