<svg id="Layer_1" data-name="Layer 1" xmlns="http://www.w3.org/2000/svg" viewBox="0 0 612.02 612.02"><defs><style>.cls-1{fill:#005ca9;}</style></defs><title>swipeme-logo-blue</title><path class="cls-1" d="M111.63,447.92c0,42.31,8.93,57.59,20,56.05,12.13-1.7,16.65-22.09,16.65-41.84,0-20.12-3.31-28-6.51-31.94-5.51-6.85-12.68-11.52-23.49-21.56-13.45-12.68-17.42-41.58-17.42-70.46,0-.94,0-1.84,0-2.76a307.93,307.93,0,0,0-3,113.35Z" transform="translate(-93.99 -93.99)"/><path class="cls-1" d="M362.83,336.75l-20.4-2.65V397l20.18.18c6.17.06,13.78-6.84,13.78-29.25C376.39,344.49,370.11,337.7,362.83,336.75Z" transform="translate(-93.99 -93.99)"/><path class="cls-1" d="M400,94c-119.17,0-222.41,68.12-273,167.54a11.71,11.71,0,0,1,2.56.2c16.43,3.14,30.22,34.21,30.22,87.84l-13.79-1c-.66-33.84-7.5-47.28-17-48.6-6.4-.89-14.45,6-14.45,33.62,0,19.16,3.75,30.07,9.37,35.66,1.21,1.19,18.64,17,22.72,21.17,10.37,10.28,15.33,39,15.33,65.54,0,57.41-15.66,83.38-31.32,86.39-.51.1-1,.17-1.53.22C180.44,639.74,282.47,706,400,706c169,0,306-137,306-306S569,94,400,94ZM254,513.33l-14,2.57L224.22,340.29l-.22,0L207.9,521.79l-14.23,2.61L172.94,276l14,2.55,14.22,187.55.22,0,15.88-182,14.12,2.57,15.44,175,.22,0,14.67-169.44,14,2.55Zm51.16-9.39-13.79,2.53V297.62l13.79,2.51Zm58.22-80.72-21,.9v73l-13.79,2.53V304.41l34.74,6.34c22.5,4.1,26.8,36.82,26.8,58.34C390.18,390.38,385.88,422.49,363.38,423.22Zm102.89,51.16-57.46,10.54V319l56.68,10.34v22l-42.9-5.45V388l39.7,1.24v20.9l-39.7.84v47.08l43.67-5.6ZM566.39,456l-13.12,2.41V371.18l-.22,0-21.83,91.3-11.36,2.08L498,365.72l-.22,0V468.59L484.68,471V332.87l19.41,3.54,21.72,100.33.22,0,21.17-92.44,19.19,3.5Zm23.15-4.25V352l56.68,10.34v12l-42.9-5.45v24.81l39.7,1.24v11.46l-39.7.84V434.9L647,429.3v11.91Z" transform="translate(-93.99 -93.99)"/></svg>